<svg xmlns="http://www.w3.org/2000/svg" width="172.299" height="172.3" viewBox="0 0 172.299 172.3">
  <g id="Logo" transform="translate(-160.724 -1012.292)">
    <g id="Groupe_2725" data-name="Groupe 2725" transform="translate(160.724 1012.293)">
      <g id="Groupe_2726" data-name="Groupe 2726" transform="translate(0)">
        <path id="Tracé_1660" data-name="Tracé 1660" d="M-893.642,2015.876a1.18,1.18,0,0,0-.371-.05h-.378v.607h.521a.468.468,0,0,0,.286-.072.316.316,0,0,0,.093-.264A.209.209,0,0,0-893.642,2015.876Z" transform="translate(1036.067 -1889.587)" fill="#fff"/>
        <path id="Tracé_1661" data-name="Tracé 1661" d="M-1046.187,2024.4a1.055,1.055,0,0,0-.846.336,2.348,2.348,0,0,0-.288,1.413,1.717,1.717,0,0,0,.491,1.431,2.715,2.715,0,0,0,1.624.375h6.111c.065,0,.1-.038.1-.116l-6.553-3.344A1.527,1.527,0,0,0-1046.187,2024.4Z" transform="translate(1086.231 -1892.401)" fill="#fff"/>
        <path id="Tracé_1662" data-name="Tracé 1662" d="M-1016.467,1827.966a86.18,86.18,0,0,0-80.809,56.23,52.257,52.257,0,0,1,6.474-3.688,27.4,27.4,0,0,1,10.086-2.82,16.194,16.194,0,0,1,5.355.531c4.514,1.246,7.051,4.335,8.171,8.745.187.738.331,1.487.55,2.481.583-.49.982-.782,1.33-1.127q7.087-7.033,14.652-13.55A224.736,224.736,0,0,1-1023.2,1853.9a42.951,42.951,0,0,1,9.1-4.684,13.719,13.719,0,0,1,3.776-.779,6.338,6.338,0,0,1,6.394,8.318,14.585,14.585,0,0,1-1.957,3.945c-2.234,3.229-4.645,6.335-6.913,9.543q-10,14.151-19.949,28.345c-.387.55-.729,1.132-1.091,1.7l.21.182a9.321,9.321,0,0,0,.8-.613c4.257-4.039,8.425-8.177,12.78-12.107,7.753-7,15.552-13.948,24.076-20.02a84.166,84.166,0,0,1,12.808-7.984,20.4,20.4,0,0,1,6.957-2.241,7.966,7.966,0,0,1,5.089.905,7.243,7.243,0,0,1,3.179,8.53,16.069,16.069,0,0,1-.893,2.178c-4.806,9.79-9.593,19.589-14.449,29.354-4.342,8.731-8.763,17.422-13.143,26.134a2.036,2.036,0,0,0-.216,1.255c.351-.175.712-.334,1.05-.53,9.4-5.44,18.692-11.071,27.632-17.242,4.757-3.284,9.55-6.564,14.152-10.057,3.762-2.856,7.893-6.306,12.954-5.645,2.1.274,4.044,1.285,4.7,3.428,1.363,4.485-2.958,9.463-6.025,12.183-4.393,3.9-9.774,6.622-14.766,9.652q-6.863,4.168-13.618,8.515-8.844,5.676-17.952,10.925c-2.878,1.661-5.59,3.607-8.423,5.35-1.768,1.088-3.58,2.121-5.445,3.029a10.478,10.478,0,0,1-6.2,1.046,8.3,8.3,0,0,1-7.092-10.3,32.939,32.939,0,0,1,3.049-7.865c2.767-5.384,5.694-10.688,8.352-16.124,5.093-10.421,10.04-20.914,15.057-31.372.839-1.75,1.734-3.474,2.59-5.215.215-.437.384-.9.573-1.348l-.238-.237c-.412.233-.839.443-1.233.7a134.5,134.5,0,0,0-13.861,10.38,270.756,270.756,0,0,0-22.016,21.28c-4.231,4.583-8.34,9.28-12.6,13.831-5.214,5.561-10.511,11.045-15.825,16.51a59.506,59.506,0,0,1-4.548,4.059,8.88,8.88,0,0,1-5.967,2.251,5.872,5.872,0,0,1-5.657-7.866,12.3,12.3,0,0,1,1.2-2.486c4.613-7.686,9.31-15.322,13.86-23.045,6.22-10.558,12.862-20.844,19.7-31q4.065-6.038,8.152-12.061a1.66,1.66,0,0,0,.284-1.011,6.872,6.872,0,0,0-1.007.543c-4.5,3.474-9.092,6.833-13.446,10.479-4.282,3.586-8.378,7.4-12.443,11.239-2.653,2.5-5.1,5.215-7.651,7.83-.612.629-1.27,1.215-1.858,1.866q-2.731,3.025-5.419,6.09c-1.609,1.845-3.263,3.661-4.748,5.6-2.241,2.935-4.461,5.9-6.5,8.975-5.249,7.945-10.652,15.782-16.439,23.345-.853,1.116-1.744,2.2-2.656,3.266a86.178,86.178,0,0,0,80.505,55.431,86.15,86.15,0,0,0,86.15-86.15A86.15,86.15,0,0,0-1016.467,1827.966Zm-33.056,138.4-2.441-1.269a2.4,2.4,0,0,1-.808.75,4.1,4.1,0,0,1-1.1.432,7.976,7.976,0,0,1-1.259.192q-.654.049-1.461.048h-5.747a11.469,11.469,0,0,1-2.182-.183,4.452,4.452,0,0,1-1.6-.624,2.844,2.844,0,0,1-1.029-1.211,4.577,4.577,0,0,1-.355-1.922v-1.076a3.545,3.545,0,0,1,.653-2.344,3.343,3.343,0,0,1,2.364-.692v-.038a5,5,0,0,1-.8-.6,1.846,1.846,0,0,1-.413-.567,2.152,2.152,0,0,1-.173-.682q-.038-.384-.038-1.1a5.962,5.962,0,0,1,.183-1.663,1.652,1.652,0,0,1,.7-.942,3.594,3.594,0,0,1,1.479-.462,21.742,21.742,0,0,1,2.652-.125h3.306a22.2,22.2,0,0,1,2.98.154,3.928,3.928,0,0,1,1.662.557,2.008,2.008,0,0,1,.8,1.143,7.808,7.808,0,0,1,.211,2.047v.769h-3.69v-.672a.921.921,0,0,0-.433-.856,3.04,3.04,0,0,0-1.47-.259h-2.94a2.967,2.967,0,0,0-1.21.163.7.7,0,0,0-.308.683,1.024,1.024,0,0,0,.163.633,2.43,2.43,0,0,0,.759.52l6.938,3.574v-1.844h3.459v1.96a6.912,6.912,0,0,1-.038.788c-.026.218-.058.448-.1.691l-.019.115,2.48,1.288Zm23.4-1.912a2.412,2.412,0,0,1-1.037,1.288,5.2,5.2,0,0,1-2.047.615,30.361,30.361,0,0,1-3.556.163h-5.17a15.3,15.3,0,0,1-2.527-.173,4.533,4.533,0,0,1-1.653-.577,2.394,2.394,0,0,1-.952-1.134,4.84,4.84,0,0,1-.307-1.864v-.961h4.266q.019,1.037.413,1.317a2.636,2.636,0,0,0,1.432.278h5.228a3.3,3.3,0,0,0,1.345-.221.936.936,0,0,0,.48-.952,1.221,1.221,0,0,0-.182-.74,1.238,1.238,0,0,0-.749-.356,10.841,10.841,0,0,0-1.653-.153q-1.087-.039-3.412-.038a31.582,31.582,0,0,1-3.873-.183,5.3,5.3,0,0,1-2.094-.625,2.15,2.15,0,0,1-.942-1.22,7.629,7.629,0,0,1-.24-2.162,10.207,10.207,0,0,1,.144-1.893,2.7,2.7,0,0,1,.682-1.326,3.576,3.576,0,0,1,1.692-.913,11.766,11.766,0,0,1,3.094-.327h5.958a11.687,11.687,0,0,1,2.883.288,3.532,3.532,0,0,1,1.624.817,2.583,2.583,0,0,1,.7,1.249,7.691,7.691,0,0,1,.172,1.759v.442h-4.266a1.478,1.478,0,0,0-.346-1.144,3.09,3.09,0,0,0-1.73-.3h-4.728a2.229,2.229,0,0,0-1.182.269.888.888,0,0,0-.432.807,1.218,1.218,0,0,0,.153.673,1.064,1.064,0,0,0,.645.355,7.656,7.656,0,0,0,1.479.163q.99.039,2.816.039,2.73,0,4.238.144a6.717,6.717,0,0,1,2.373.586,2.462,2.462,0,0,1,1.211,1.307,6.671,6.671,0,0,1,.345,2.4A7.061,7.061,0,0,1-1026.124,1964.457Zm18.4,1.912h-15.472v-13.915h15.222v3.229h-10.955v2.229h10.378v2.883h-10.378v2.229h11.2Zm21.506,0h-6.611l-8.015-10.109h-.038v10.109h-4.267v-13.915h6.612l8.015,10.109h.038v-10.109h4.267Zm19.883-1.912a2.413,2.413,0,0,1-1.038,1.288,5.2,5.2,0,0,1-2.048.615,30.359,30.359,0,0,1-3.555.163h-5.17a15.294,15.294,0,0,1-2.527-.173,4.53,4.53,0,0,1-1.653-.577,2.4,2.4,0,0,1-.952-1.134,4.844,4.844,0,0,1-.307-1.864v-.961h4.266q.019,1.037.413,1.317a2.634,2.634,0,0,0,1.431.278h5.228a3.3,3.3,0,0,0,1.345-.221.935.935,0,0,0,.481-.952,1.216,1.216,0,0,0-.183-.74,1.236,1.236,0,0,0-.749-.356,10.836,10.836,0,0,0-1.653-.153q-1.086-.039-3.412-.038a31.6,31.6,0,0,1-3.873-.183,5.3,5.3,0,0,1-2.095-.625,2.155,2.155,0,0,1-.942-1.22,7.656,7.656,0,0,1-.24-2.162,10.2,10.2,0,0,1,.144-1.893,2.691,2.691,0,0,1,.682-1.326,3.576,3.576,0,0,1,1.691-.913,11.763,11.763,0,0,1,3.094-.327h5.959a11.69,11.69,0,0,1,2.883.288,3.536,3.536,0,0,1,1.624.817,2.6,2.6,0,0,1,.7,1.249,7.682,7.682,0,0,1,.173,1.759v.442h-4.267a1.478,1.478,0,0,0-.346-1.144,3.094,3.094,0,0,0-1.73-.3h-4.728a2.226,2.226,0,0,0-1.182.269.889.889,0,0,0-.433.807,1.212,1.212,0,0,0,.154.673,1.062,1.062,0,0,0,.644.355,7.664,7.664,0,0,0,1.48.163q.99.039,2.816.039,2.729,0,4.238.144a6.708,6.708,0,0,1,2.373.586,2.459,2.459,0,0,1,1.211,1.307,6.672,6.672,0,0,1,.346,2.4A7.081,7.081,0,0,1-966.333,1964.457Zm8.242-8.429a2.656,2.656,0,0,1-.57.85,2.657,2.657,0,0,1-.849.57,2.584,2.584,0,0,1-1.017.2,2.583,2.583,0,0,1-1.017-.2,2.65,2.65,0,0,1-.849-.57,2.648,2.648,0,0,1-.571-.85,2.581,2.581,0,0,1-.2-1.016,2.585,2.585,0,0,1,.2-1.017,2.643,2.643,0,0,1,.571-.849,2.631,2.631,0,0,1,.849-.571,2.582,2.582,0,0,1,1.017-.2,2.582,2.582,0,0,1,1.017.2,2.638,2.638,0,0,1,.849.571,2.651,2.651,0,0,1,.57.849,2.582,2.582,0,0,1,.2,1.017A2.578,2.578,0,0,1-958.091,1956.027Z" transform="translate(1102.617 -1827.966)" fill="#fff"/>
        <path id="Tracé_1663" data-name="Tracé 1663" d="M-1087.517,1932.164a11.846,11.846,0,0,0,4.077-6.1c.441-1.6.99-3.181,1.322-4.8.366-1.788-.13-2.261-1.98-2.118a19.436,19.436,0,0,0-6.122,1.681,49.508,49.508,0,0,0-10.3,6.219q-1.8,1.355-3.534,2.78a86.742,86.742,0,0,0-1.17,14.192c0,1.948.07,3.88.2,5.8A166.477,166.477,0,0,1-1087.517,1932.164Z" transform="translate(1105.224 -1857.866)" fill="#fff"/>
        <path id="Tracé_1664" data-name="Tracé 1664" d="M-893.369,2014.755a1.665,1.665,0,0,0-.567-.378,1.866,1.866,0,0,0-.71-.132,1.866,1.866,0,0,0-.71.132,1.657,1.657,0,0,0-.567.378,1.672,1.672,0,0,0-.374.592,2.129,2.129,0,0,0-.132.767,2.133,2.133,0,0,0,.132.767,1.675,1.675,0,0,0,.374.592,1.671,1.671,0,0,0,.567.378,1.878,1.878,0,0,0,.71.132,1.878,1.878,0,0,0,.71-.132,1.679,1.679,0,0,0,.567-.378,1.7,1.7,0,0,0,.375-.592,2.153,2.153,0,0,0,.132-.767,2.149,2.149,0,0,0-.132-.767A1.7,1.7,0,0,0-893.369,2014.755Zm-.2,2.75h-.692l-.542-1.077h-.257v1.077h-.642v-2.711h1.048a1.656,1.656,0,0,1,.892.189.743.743,0,0,1,.285.667.711.711,0,0,1-.189.546.776.776,0,0,1-.51.189Z" transform="translate(1036.736 -1889.068)" fill="#fff"/>
      </g>
      <g id="Groupe_2725-2" data-name="Groupe 2725" transform="translate(0.198 20.47)">
        <path id="Tracé_1665" data-name="Tracé 1665" d="M-1036.281,2023.043c.038-.243.07-.474.1-.691a6.9,6.9,0,0,0,.038-.788v-1.96h-3.459v1.845l-6.938-3.574a2.439,2.439,0,0,1-.759-.519,1.026,1.026,0,0,1-.163-.634.7.7,0,0,1,.308-.683,2.965,2.965,0,0,1,1.21-.163h2.94a3.037,3.037,0,0,1,1.47.259.92.92,0,0,1,.433.856v.672h3.69v-.769a7.806,7.806,0,0,0-.211-2.047,2.008,2.008,0,0,0-.8-1.143,3.927,3.927,0,0,0-1.662-.557,22.243,22.243,0,0,0-2.98-.154h-3.305a21.759,21.759,0,0,0-2.652.125,3.6,3.6,0,0,0-1.48.462,1.651,1.651,0,0,0-.7.941,5.968,5.968,0,0,0-.183,1.662q0,.712.038,1.1a2.156,2.156,0,0,0,.173.682,1.839,1.839,0,0,0,.413.567,4.975,4.975,0,0,0,.8.6v.038a3.344,3.344,0,0,0-2.364.692,3.547,3.547,0,0,0-.653,2.344v1.077a4.577,4.577,0,0,0,.355,1.922,2.841,2.841,0,0,0,1.029,1.211,4.457,4.457,0,0,0,1.6.624,11.479,11.479,0,0,0,2.181.183h5.747q.806,0,1.461-.048a8,8,0,0,0,1.259-.192,4.086,4.086,0,0,0,1.1-.432,2.389,2.389,0,0,0,.808-.75l2.441,1.269,1.173-2.614-2.479-1.288Zm-4.671,1.173h-6.111a2.717,2.717,0,0,1-1.624-.375,1.717,1.717,0,0,1-.491-1.431,2.348,2.348,0,0,1,.288-1.413,1.055,1.055,0,0,1,.846-.336,1.526,1.526,0,0,1,.634.1l6.553,3.344C-1040.856,2024.178-1040.888,2024.216-1040.953,2024.216Z" transform="translate(1087.89 -1909.128)"/>
        <path id="Tracé_1666" data-name="Tracé 1666" d="M-1001.07,2019.142a6.724,6.724,0,0,0-2.373-.586q-1.509-.144-4.238-.144-1.826,0-2.816-.039a7.682,7.682,0,0,1-1.48-.163,1.065,1.065,0,0,1-.645-.356,1.218,1.218,0,0,1-.153-.672.888.888,0,0,1,.432-.807,2.227,2.227,0,0,1,1.182-.27h4.728a3.093,3.093,0,0,1,1.73.3,1.478,1.478,0,0,1,.346,1.144h4.266v-.442a7.678,7.678,0,0,0-.173-1.759,2.583,2.583,0,0,0-.7-1.249,3.535,3.535,0,0,0-1.624-.817,11.693,11.693,0,0,0-2.883-.288h-5.958a11.758,11.758,0,0,0-3.095.327,3.575,3.575,0,0,0-1.691.913,2.692,2.692,0,0,0-.682,1.326,10.187,10.187,0,0,0-.145,1.893,7.63,7.63,0,0,0,.241,2.162,2.15,2.15,0,0,0,.942,1.22,5.3,5.3,0,0,0,2.095.625,31.549,31.549,0,0,0,3.873.183q2.325,0,3.412.038a10.868,10.868,0,0,1,1.653.153,1.237,1.237,0,0,1,.749.356,1.221,1.221,0,0,1,.182.74.936.936,0,0,1-.48.952,3.3,3.3,0,0,1-1.345.22h-5.227a2.634,2.634,0,0,1-1.432-.278q-.394-.278-.413-1.316h-4.266v.961a4.844,4.844,0,0,0,.307,1.864,2.4,2.4,0,0,0,.952,1.134,4.534,4.534,0,0,0,1.653.577,15.339,15.339,0,0,0,2.527.173h5.17a30.3,30.3,0,0,0,3.556-.163,5.2,5.2,0,0,0,2.047-.615,2.413,2.413,0,0,0,1.037-1.288,7.064,7.064,0,0,0,.3-2.3,6.674,6.674,0,0,0-.345-2.4A2.463,2.463,0,0,0-1001.07,2019.142Z" transform="translate(1076.107 -1909.128)"/>
        <path id="Tracé_1667" data-name="Tracé 1667" d="M-982.764,2021.562h10.378v-2.883h-10.378v-2.229h10.955v-3.229h-15.222v13.915h15.472v-3.344h-11.2Z" transform="translate(1066.257 -1909.203)"/>
        <path id="Tracé_1668" data-name="Tracé 1668" d="M-945.51,2023.33h-.038l-8.015-10.109h-6.612v13.915h4.267v-10.109h.038l8.015,10.109h6.611v-13.915h-4.267Z" transform="translate(1057.447 -1909.203)"/>
        <path id="Tracé_1669" data-name="Tracé 1669" d="M-912.094,2019.142a6.717,6.717,0,0,0-2.374-.586q-1.509-.144-4.237-.144-1.826,0-2.816-.039a7.682,7.682,0,0,1-1.48-.163,1.062,1.062,0,0,1-.644-.356,1.21,1.21,0,0,1-.154-.672.889.889,0,0,1,.433-.807,2.226,2.226,0,0,1,1.182-.27h4.728a3.1,3.1,0,0,1,1.73.3,1.479,1.479,0,0,1,.346,1.144h4.266v-.442a7.671,7.671,0,0,0-.173-1.759,2.593,2.593,0,0,0-.7-1.249,3.538,3.538,0,0,0-1.624-.817,11.7,11.7,0,0,0-2.883-.288h-5.959a11.751,11.751,0,0,0-3.094.327,3.576,3.576,0,0,0-1.691.913,2.689,2.689,0,0,0-.682,1.326,10.188,10.188,0,0,0-.144,1.893,7.656,7.656,0,0,0,.24,2.162,2.154,2.154,0,0,0,.942,1.22,5.3,5.3,0,0,0,2.095.625,31.563,31.563,0,0,0,3.873.183q2.325,0,3.412.038a10.866,10.866,0,0,1,1.653.153,1.236,1.236,0,0,1,.749.356,1.216,1.216,0,0,1,.183.74.936.936,0,0,1-.481.952,3.3,3.3,0,0,1-1.345.22h-5.228a2.633,2.633,0,0,1-1.431-.278q-.394-.278-.413-1.316h-4.266v.961a4.844,4.844,0,0,0,.307,1.864,2.4,2.4,0,0,0,.952,1.134,4.53,4.53,0,0,0,1.653.577,15.337,15.337,0,0,0,2.527.173h5.17a30.3,30.3,0,0,0,3.555-.163,5.2,5.2,0,0,0,2.048-.615,2.414,2.414,0,0,0,1.038-1.288,7.081,7.081,0,0,0,.3-2.3,6.669,6.669,0,0,0-.346-2.4A2.46,2.46,0,0,0-912.094,2019.142Z" transform="translate(1046.921 -1909.128)"/>
        <path id="Tracé_1670" data-name="Tracé 1670" d="M-893.121,2015.919a.743.743,0,0,0-.285-.668,1.656,1.656,0,0,0-.892-.189h-1.048v2.711h.642V2016.7h.257l.542,1.077h.692l-.606-1.12a.776.776,0,0,0,.51-.189A.712.712,0,0,0-893.121,2015.919Zm-.777.192a.467.467,0,0,1-.286.072h-.521v-.607h.378a1.18,1.18,0,0,1,.371.05.209.209,0,0,1,.15.22A.316.316,0,0,1-893.9,2016.111Z" transform="translate(1036.182 -1909.807)"/>
        <path id="Tracé_1671" data-name="Tracé 1671" d="M-893.2,2013.872a2.641,2.641,0,0,0-.849-.571,2.585,2.585,0,0,0-1.017-.2,2.585,2.585,0,0,0-1.017.2,2.633,2.633,0,0,0-.849.571,2.645,2.645,0,0,0-.57.849,2.586,2.586,0,0,0-.2,1.017,2.582,2.582,0,0,0,.2,1.016,2.649,2.649,0,0,0,.57.85,2.654,2.654,0,0,0,.849.57,2.585,2.585,0,0,0,1.017.2,2.584,2.584,0,0,0,1.017-.2,2.662,2.662,0,0,0,.849-.57,2.658,2.658,0,0,0,.57-.85,2.578,2.578,0,0,0,.2-1.016,2.582,2.582,0,0,0-.2-1.017A2.654,2.654,0,0,0-893.2,2013.872Zm-.214,2.632a1.7,1.7,0,0,1-.375.592,1.679,1.679,0,0,1-.567.378,1.878,1.878,0,0,1-.71.132,1.877,1.877,0,0,1-.71-.132,1.671,1.671,0,0,1-.567-.378,1.679,1.679,0,0,1-.374-.592,2.135,2.135,0,0,1-.132-.767,2.133,2.133,0,0,1,.132-.767,1.677,1.677,0,0,1,.374-.592,1.659,1.659,0,0,1,.567-.378,1.87,1.87,0,0,1,.71-.131,1.871,1.871,0,0,1,.71.131,1.667,1.667,0,0,1,.567.378,1.7,1.7,0,0,1,.375.592,2.149,2.149,0,0,1,.132.767A2.151,2.151,0,0,1-893.412,2016.5Z" transform="translate(1036.955 -1909.163)"/>
        <path id="Tracé_1672" data-name="Tracé 1672" d="M-1080.388,1928.217c2.034-3.079,4.254-6.041,6.5-8.975,1.484-1.944,3.138-3.76,4.747-5.6q2.679-3.072,5.419-6.09c.587-.651,1.245-1.237,1.857-1.866,2.546-2.615,5-5.329,7.651-7.83,4.066-3.835,8.161-7.652,12.444-11.239,4.354-3.646,8.948-7,13.446-10.479a6.863,6.863,0,0,1,1.007-.544,1.66,1.66,0,0,1-.284,1.01q-4.07,6.034-8.152,12.061c-6.841,10.161-13.482,20.447-19.7,31-4.549,7.723-9.247,15.359-13.86,23.045a12.312,12.312,0,0,0-1.2,2.486,5.872,5.872,0,0,0,5.657,7.866,8.878,8.878,0,0,0,5.967-2.251,59.461,59.461,0,0,0,4.548-4.06c5.314-5.465,10.611-10.949,15.824-16.51,4.265-4.551,8.374-9.248,12.605-13.831a270.683,270.683,0,0,1,22.016-21.28,134.508,134.508,0,0,1,13.861-10.38c.394-.26.821-.47,1.233-.7l.238.237c-.189.45-.358.911-.573,1.348-.857,1.742-1.751,3.465-2.591,5.215-5.017,10.458-9.964,20.951-15.057,31.373-2.658,5.436-5.585,10.74-8.352,16.124a32.933,32.933,0,0,0-3.049,7.865,8.3,8.3,0,0,0,7.092,10.3,10.482,10.482,0,0,0,6.2-1.046c1.865-.909,3.677-1.941,5.445-3.029,2.833-1.743,5.545-3.689,8.423-5.35q9.1-5.251,17.952-10.925,6.762-4.339,13.618-8.515c4.992-3.031,10.373-5.757,14.766-9.652,3.067-2.72,7.388-7.7,6.025-12.183-.651-2.143-2.6-3.154-4.7-3.428-5.061-.661-9.191,2.789-12.954,5.645-4.6,3.493-9.4,6.773-14.152,10.057-8.94,6.171-18.229,11.8-27.632,17.242-.339.2-.7.355-1.05.531a2.035,2.035,0,0,1,.216-1.255c4.38-8.712,8.8-17.4,13.143-26.134,4.856-9.765,9.643-19.564,14.449-29.354a16.072,16.072,0,0,0,.893-2.178,7.244,7.244,0,0,0-3.179-8.53,7.968,7.968,0,0,0-5.089-.906,20.405,20.405,0,0,0-6.957,2.241,84.148,84.148,0,0,0-12.808,7.984c-8.524,6.072-16.323,13.024-24.076,20.021-4.355,3.93-8.523,8.068-12.78,12.107a9.288,9.288,0,0,1-.8.613l-.21-.182c.362-.567.7-1.148,1.09-1.7q9.966-14.179,19.949-28.344c2.268-3.208,4.678-6.314,6.913-9.543a14.589,14.589,0,0,0,1.957-3.945,6.338,6.338,0,0,0-6.394-8.319,13.721,13.721,0,0,0-3.777.78,42.93,42.93,0,0,0-9.1,4.684,224.744,224.744,0,0,0-27.456,20.864q-7.559,6.526-14.652,13.551c-.347.345-.747.637-1.33,1.127-.219-.994-.363-1.743-.55-2.481-1.12-4.41-3.657-7.5-8.171-8.745a16.188,16.188,0,0,0-5.355-.531,27.41,27.41,0,0,0-10.087,2.82,52.246,52.246,0,0,0-6.474,3.688,85.514,85.514,0,0,0-4.171,15.727q1.738-1.422,3.534-2.78a49.518,49.518,0,0,1,10.3-6.218,19.427,19.427,0,0,1,6.122-1.681c1.849-.142,2.346.331,1.98,2.118-.333,1.624-.881,3.2-1.322,4.8a11.85,11.85,0,0,1-4.077,6.1,166.386,166.386,0,0,0-17.508,17.647,85.706,85.706,0,0,0,5.446,24.924c.911-1.066,1.8-2.15,2.656-3.266C-1091.039,1944-1085.637,1936.162-1080.388,1928.217Z" transform="translate(1104.929 -1858.429)"/>
      </g>
    </g>
  </g>
</svg>
